<svg width="60" height="60" viewBox="0 0 60 60" fill="none" xmlns="http://www.w3.org/2000/svg">
    <rect width="60" height="60" fill="#3E354E" />
    <rect x="1" y="1" width="58" height="58" stroke="black" stroke-opacity="0.75" stroke-width="2" />
    <path
        d="M32.2139 49.7C30.3472 49.7 28.5972 49.42 26.9639 48.86C25.3772 48.2533 23.9772 47.4367 22.7639 46.41C21.5505 45.3367 20.5705 44.1 19.8239 42.7H20.7339V49H16.1839V35.7H20.3839C20.5705 37.6133 21.1539 39.3167 22.1339 40.81C23.1139 42.3033 24.4439 43.4933 26.1239 44.38C27.8039 45.22 29.7639 45.64 32.0039 45.64C34.4305 45.64 36.3205 45.08 37.6739 43.96C39.0272 42.7933 39.7039 41.1367 39.7039 38.99C39.7039 37.2633 39.4005 35.9333 38.7939 35C38.1872 34.02 37.1839 33.2733 35.7839 32.76C34.3839 32.2 32.5172 31.7333 30.1839 31.36L28.5039 31.08C24.7239 30.4267 21.6905 29.19 19.4039 27.37C17.1172 25.5033 15.9739 22.9133 15.9739 19.6C15.9739 17.2667 16.4872 15.3067 17.5139 13.72C18.5405 12.1333 19.9872 10.92 21.8539 10.08C23.7205 9.24 25.8905 8.82 28.3639 8.82C31.1172 8.82 33.5439 9.42667 35.6439 10.64C37.7439 11.8533 39.1672 13.51 39.9139 15.61H38.4439V9.59H42.9239V20.72H38.7939C38.6072 19.6 38.2105 18.4333 37.6039 17.22C36.9972 16.0067 35.9939 14.98 34.5939 14.14C33.1939 13.3 31.2105 12.88 28.6439 12.88C26.2172 12.88 24.3505 13.4633 23.0439 14.63C21.7372 15.75 21.0839 17.22 21.0839 19.04C21.0839 21.0467 21.8072 22.5867 23.2539 23.66C24.7005 24.7333 26.8005 25.5267 29.5539 26.04L31.1639 26.32C34.2439 26.8333 36.7872 27.5333 38.7939 28.42C40.8005 29.3067 42.2939 30.52 43.2739 32.06C44.3005 33.6 44.8139 35.63 44.8139 38.15C44.8139 40.2033 44.3239 42.1167 43.3439 43.89C42.3639 45.6167 40.9405 47.0167 39.0739 48.09C37.2072 49.1633 34.9205 49.7 32.2139 49.7Z"
        fill="white" />
    <circle cx="8.5" cy="8.5" r="8.5" fill="#2DE46B" />
</svg>