<svg width="248" height="351" viewBox="0 0 248 351" fill="none" xmlns="http://www.w3.org/2000/svg">
    <path
        d="M139.262 351C123.262 351 108.262 348.6 94.2617 343.8C80.6617 338.6 68.6617 331.6 58.2617 322.8C47.8617 313.6 39.4617 303 33.0617 291H40.8617V345H1.86172V231H37.8617C39.4617 247.4 44.4617 262 52.8617 274.8C61.2617 287.6 72.6617 297.8 87.0617 305.4C101.462 312.6 118.262 316.2 137.462 316.2C158.262 316.2 174.462 311.4 186.062 301.8C197.662 291.8 203.462 277.6 203.462 259.2C203.462 244.4 200.862 233 195.662 225C190.462 216.6 181.862 210.2 169.862 205.8C157.862 201 141.862 197 121.862 193.8L107.462 191.4C75.0617 185.8 49.0617 175.2 29.4617 159.6C9.86172 143.6 0.061721 121.4 0.061721 93C0.061721 73 4.46172 56.2 13.2617 42.6C22.0617 29 34.4617 18.6 50.4617 11.4C66.4617 4.19999 85.0617 0.599999 106.262 0.599999C129.862 0.599999 150.662 5.79999 168.662 16.2C186.662 26.6 198.862 40.8 205.262 58.8H192.662V7.19999H231.062V102.6H195.662C194.062 93 190.662 83 185.462 72.6C180.262 62.2 171.662 53.4 159.662 46.2C147.662 39 130.662 35.4 108.662 35.4C87.8617 35.4 71.8617 40.4 60.6617 50.4C49.4617 60 43.8617 72.6 43.8617 88.2C43.8617 105.4 50.0617 118.6 62.4617 127.8C74.8617 137 92.8617 143.8 116.462 148.2L130.262 150.6C156.662 155 178.462 161 195.662 168.6C212.862 176.2 225.662 186.6 234.062 199.8C242.862 213 247.262 230.4 247.262 252C247.262 269.6 243.062 286 234.662 301.2C226.262 316 214.062 328 198.062 337.2C182.062 346.4 162.462 351 139.262 351Z"
        fill="url(#paint0_linear_0_1)" />
    <path
        d="M139.262 351C123.262 351 108.262 348.6 94.2617 343.8C80.6617 338.6 68.6617 331.6 58.2617 322.8C47.8617 313.6 39.4617 303 33.0617 291H40.8617V345H1.86172V231H37.8617C39.4617 247.4 44.4617 262 52.8617 274.8C61.2617 287.6 72.6617 297.8 87.0617 305.4C101.462 312.6 118.262 316.2 137.462 316.2C158.262 316.2 174.462 311.4 186.062 301.8C197.662 291.8 203.462 277.6 203.462 259.2C203.462 244.4 200.862 233 195.662 225C190.462 216.6 181.862 210.2 169.862 205.8C157.862 201 141.862 197 121.862 193.8L107.462 191.4C75.0617 185.8 49.0617 175.2 29.4617 159.6C9.86172 143.6 0.061721 121.4 0.061721 93C0.061721 73 4.46172 56.2 13.2617 42.6C22.0617 29 34.4617 18.6 50.4617 11.4C66.4617 4.19999 85.0617 0.599999 106.262 0.599999C129.862 0.599999 150.662 5.79999 168.662 16.2C186.662 26.6 198.862 40.8 205.262 58.8H192.662V7.19999H231.062V102.6H195.662C194.062 93 190.662 83 185.462 72.6C180.262 62.2 171.662 53.4 159.662 46.2C147.662 39 130.662 35.4 108.662 35.4C87.8617 35.4 71.8617 40.4 60.6617 50.4C49.4617 60 43.8617 72.6 43.8617 88.2C43.8617 105.4 50.0617 118.6 62.4617 127.8C74.8617 137 92.8617 143.8 116.462 148.2L130.262 150.6C156.662 155 178.462 161 195.662 168.6C212.862 176.2 225.662 186.6 234.062 199.8C242.862 213 247.262 230.4 247.262 252C247.262 269.6 243.062 286 234.662 301.2C226.262 316 214.062 328 198.062 337.2C182.062 346.4 162.462 351 139.262 351Z"
        fill="url(#paint1_linear_0_1)" />
    <path
        d="M139.262 351C123.262 351 108.262 348.6 94.2617 343.8C80.6617 338.6 68.6617 331.6 58.2617 322.8C47.8617 313.6 39.4617 303 33.0617 291H40.8617V345H1.86172V231H37.8617C39.4617 247.4 44.4617 262 52.8617 274.8C61.2617 287.6 72.6617 297.8 87.0617 305.4C101.462 312.6 118.262 316.2 137.462 316.2C158.262 316.2 174.462 311.4 186.062 301.8C197.662 291.8 203.462 277.6 203.462 259.2C203.462 244.4 200.862 233 195.662 225C190.462 216.6 181.862 210.2 169.862 205.8C157.862 201 141.862 197 121.862 193.8L107.462 191.4C75.0617 185.8 49.0617 175.2 29.4617 159.6C9.86172 143.6 0.061721 121.4 0.061721 93C0.061721 73 4.46172 56.2 13.2617 42.6C22.0617 29 34.4617 18.6 50.4617 11.4C66.4617 4.19999 85.0617 0.599999 106.262 0.599999C129.862 0.599999 150.662 5.79999 168.662 16.2C186.662 26.6 198.862 40.8 205.262 58.8H192.662V7.19999H231.062V102.6H195.662C194.062 93 190.662 83 185.462 72.6C180.262 62.2 171.662 53.4 159.662 46.2C147.662 39 130.662 35.4 108.662 35.4C87.8617 35.4 71.8617 40.4 60.6617 50.4C49.4617 60 43.8617 72.6 43.8617 88.2C43.8617 105.4 50.0617 118.6 62.4617 127.8C74.8617 137 92.8617 143.8 116.462 148.2L130.262 150.6C156.662 155 178.462 161 195.662 168.6C212.862 176.2 225.662 186.6 234.062 199.8C242.862 213 247.262 230.4 247.262 252C247.262 269.6 243.062 286 234.662 301.2C226.262 316 214.062 328 198.062 337.2C182.062 346.4 162.462 351 139.262 351Z"
        fill="url(#paint2_linear_0_1)" />
    <path
        d="M139.262 351C123.262 351 108.262 348.6 94.2617 343.8C80.6617 338.6 68.6617 331.6 58.2617 322.8C47.8617 313.6 39.4617 303 33.0617 291H40.8617V345H1.86172V231H37.8617C39.4617 247.4 44.4617 262 52.8617 274.8C61.2617 287.6 72.6617 297.8 87.0617 305.4C101.462 312.6 118.262 316.2 137.462 316.2C158.262 316.2 174.462 311.4 186.062 301.8C197.662 291.8 203.462 277.6 203.462 259.2C203.462 244.4 200.862 233 195.662 225C190.462 216.6 181.862 210.2 169.862 205.8C157.862 201 141.862 197 121.862 193.8L107.462 191.4C75.0617 185.8 49.0617 175.2 29.4617 159.6C9.86172 143.6 0.061721 121.4 0.061721 93C0.061721 73 4.46172 56.2 13.2617 42.6C22.0617 29 34.4617 18.6 50.4617 11.4C66.4617 4.19999 85.0617 0.599999 106.262 0.599999C129.862 0.599999 150.662 5.79999 168.662 16.2C186.662 26.6 198.862 40.8 205.262 58.8H192.662V7.19999H231.062V102.6H195.662C194.062 93 190.662 83 185.462 72.6C180.262 62.2 171.662 53.4 159.662 46.2C147.662 39 130.662 35.4 108.662 35.4C87.8617 35.4 71.8617 40.4 60.6617 50.4C49.4617 60 43.8617 72.6 43.8617 88.2C43.8617 105.4 50.0617 118.6 62.4617 127.8C74.8617 137 92.8617 143.8 116.462 148.2L130.262 150.6C156.662 155 178.462 161 195.662 168.6C212.862 176.2 225.662 186.6 234.062 199.8C242.862 213 247.262 230.4 247.262 252C247.262 269.6 243.062 286 234.662 301.2C226.262 316 214.062 328 198.062 337.2C182.062 346.4 162.462 351 139.262 351Z"
        fill="url(#paint3_linear_0_1)" />
    <defs>
        <linearGradient id="paint0_linear_0_1" x1="223" y1="9.00001" x2="8.99999" y2="335"
            gradientUnits="userSpaceOnUse">
            <stop stop-color="#2DE46B" />
            <stop offset="1" stop-color="#2DE46B" stop-opacity="0" />
        </linearGradient>
        <linearGradient id="paint1_linear_0_1" x1="9" y1="345" x2="223" y2="15" gradientUnits="userSpaceOnUse">
            <stop stop-color="#E1CC0B" />
            <stop offset="1" stop-color="#E1CC0B" stop-opacity="0" />
        </linearGradient>
        <linearGradient id="paint2_linear_0_1" x1="223" y1="9.00001" x2="8.99999" y2="335"
            gradientUnits="userSpaceOnUse">
            <stop stop-color="#2DE46B" />
            <stop offset="1" stop-color="#2DE46B" stop-opacity="0" />
        </linearGradient>
        <linearGradient id="paint3_linear_0_1" x1="9" y1="345" x2="223" y2="15" gradientUnits="userSpaceOnUse">
            <stop stop-color="#E1CC0B" />
            <stop offset="1" stop-color="#E1CC0B" stop-opacity="0" />
        </linearGradient>
    </defs>
</svg>